<svg width="236" height="60" viewBox="0 0 236 60" fill="none" xmlns="http://www.w3.org/2000/svg">
<path d="M108.011 16.0794L107.587 18.3285H115.565L114.655 22.9116H106.642L106.16 25.3815H115.62L114.655 30.1922H98.9216L102.697 11.3163H118.45L117.485 16.0794H108.011Z" fill="#111237"/>
<path d="M144.418 11.33L140.691 30.2025H134.89L136.566 21.5969L131.251 28.4936H128.451L125.542 21.7532L123.833 30.2466H118.036L121.811 11.3741H126.993L131.071 21.3489L138.937 11.33H144.418Z" fill="#111237"/>
<path d="M166.849 11.33L163.074 30.2025H156.815L159.543 16.2596H153.79L151.072 30.2025H144.813L148.588 11.33H166.849Z" fill="#111237"/>
<path d="M170.995 11.33H177.254L175.232 21.1348L183.67 11.33H189.739L185.963 30.2025H179.704L181.76 20.4078L173.319 30.2025H167.22L170.995 11.33Z" fill="#111237"/>
<path d="M201.075 25.5412C202.009 25.5582 202.923 25.283 203.691 24.7564C204.449 24.2298 205.044 23.5028 205.411 22.6568C205.815 21.7497 206.019 20.7645 206.005 19.7691C206.046 19.273 205.975 18.777 205.805 18.3116C205.631 17.8461 205.363 17.4249 205.01 17.0715C204.66 16.7216 204.235 16.4498 203.769 16.2799C203.304 16.1101 202.804 16.0421 202.311 16.0829C201.374 16.0625 200.449 16.3343 199.671 16.8575C198.927 17.3943 198.343 18.1179 197.976 18.9571C197.575 19.854 197.371 20.829 197.367 21.8109C197.32 22.3069 197.384 22.8063 197.551 23.2752C197.721 23.744 197.993 24.1687 198.346 24.522C198.699 24.8719 199.127 25.1403 199.596 25.3068C200.065 25.4733 200.568 25.5344 201.064 25.4835L201.075 25.5412ZM200.538 30.6849C198.791 30.7256 197.055 30.3621 195.471 29.6283C194.088 28.9692 192.919 27.933 192.1 26.6386C191.325 25.3068 190.935 23.7848 190.975 22.2458C190.942 20.1937 191.461 18.1723 192.481 16.392C193.49 14.6832 194.958 13.2902 196.718 12.3695C198.621 11.4013 200.731 10.9121 202.865 10.9426C204.612 10.9155 206.342 11.2994 207.912 12.0672C209.301 12.7025 210.474 13.7353 211.282 15.0331C212.081 16.3581 212.492 17.8801 212.462 19.4259C212.455 21.4644 211.901 23.462 210.854 25.2117C209.845 26.9138 208.377 28.2965 206.617 29.2002C204.741 30.1889 202.655 30.6985 200.538 30.6849Z" fill="#111237"/>
<path d="M236 11.33L232.201 30.2025H225.83L227.236 23.2378H221.358L219.954 30.2025H213.593L217.368 11.33H223.73L222.381 18.0126H228.259L229.605 11.33H236Z" fill="#111237"/>
<path d="M83.8002 44.0537L86.9128 49.7171H83.1716L81.1327 45.4296H79.291L78.4279 49.7171H75.1487L77.4118 38.4242H80.6876L79.8143 42.8068H81.4691L85.4449 38.4242H89.0468L83.8002 44.0537Z" fill="#E91E63"/>
<path d="M109.524 47.1757C110.125 47.1893 110.72 47.0263 111.233 46.7103C111.746 46.3943 112.157 45.9357 112.415 45.3921C112.704 44.7908 112.85 44.1249 112.837 43.4556C112.854 43.1227 112.803 42.7863 112.684 42.4738C112.565 42.1612 112.385 41.8758 112.15 41.638C111.899 41.4036 111.6 41.2235 111.274 41.108C110.947 40.9925 110.604 40.9415 110.261 40.9619C109.656 40.9517 109.065 41.1148 108.548 41.4308C108.035 41.7467 107.621 42.202 107.356 42.7456C107.067 43.3469 106.921 44.0128 106.934 44.6821C106.917 45.015 106.968 45.348 107.084 45.6605C107.199 45.9731 107.379 46.2585 107.611 46.4997C107.869 46.7341 108.171 46.9142 108.497 47.0297C108.827 47.1486 109.177 47.1961 109.524 47.1757ZM117.149 38.4241L114.91 49.7204H111.855L112.065 48.5551C111.27 49.2346 110.292 49.6626 109.255 49.7849C108.215 49.9039 107.165 49.7136 106.238 49.2312C105.494 48.8235 104.875 48.2188 104.454 47.4815C103.971 46.6763 103.71 45.7624 103.696 44.8248C103.676 43.6527 103.958 42.4975 104.511 41.4681C105.042 40.5033 105.823 39.6981 106.775 39.1375C107.723 38.56 108.813 38.261 109.921 38.2746C110.628 38.2032 111.345 38.3255 111.991 38.6245C112.636 38.9235 113.19 39.3923 113.595 39.9767L113.897 38.4377L117.149 38.4241Z" fill="#E91E63"/>
<path d="M142.07 43.9245C142.584 44.1011 143.039 44.4205 143.375 44.8452C143.691 45.2359 143.861 45.7285 143.854 46.2313C143.868 46.9312 143.61 47.6072 143.131 48.1202C142.533 48.7318 141.792 49.187 140.973 49.4384C139.974 49.7782 138.927 49.9412 137.87 49.9277C136.243 49.9412 134.639 49.5404 133.208 48.7623L134.292 46.5608C134.819 46.8428 135.38 47.0535 135.961 47.1894C136.62 47.3287 137.293 47.4 137.966 47.4C138.659 47.434 139.352 47.3015 139.984 47.0161C140.205 46.9346 140.392 46.7885 140.528 46.5982C140.664 46.408 140.738 46.1803 140.742 45.9459C140.742 45.2936 140.218 44.9675 139.168 44.9675H136.837L137.153 42.929H139.09C139.59 42.9562 140.086 42.8543 140.534 42.6369C140.698 42.5587 140.834 42.4364 140.932 42.2835C141.027 42.1306 141.082 41.954 141.082 41.7739C141.082 41.0741 140.453 40.7241 139.206 40.7241C138.676 40.7275 138.146 40.7955 137.633 40.9348C137.011 41.1046 136.402 41.3221 135.815 41.5871L135.115 39.1273C136.508 38.5328 138.006 38.2202 139.522 38.2067C140.351 38.1863 141.18 38.3086 141.972 38.5668C142.621 38.7672 143.209 39.1341 143.674 39.6268C144.065 40.065 144.283 40.6358 144.283 41.2235C144.283 41.8113 144.065 42.3821 143.674 42.8203C143.246 43.3265 142.696 43.7104 142.07 43.9245Z" fill="#E91E63"/>
<path d="M162.272 38.4242H165.551L164.138 45.2903L170.961 38.4242H174.06L171.81 49.7171H168.524L169.945 42.8306L163.125 49.7171H160.07L162.272 38.4242Z" fill="#E91E63"/>
<path d="M190.816 38.4242H194.071L193.184 42.8306H198.091L198.978 38.4242H202.23L199.98 49.7171H196.705L197.544 45.4976H192.661L191.822 49.7171H188.543L190.816 38.4242Z" fill="#E91E63"/>
<path d="M223.359 47.1759C223.961 47.1861 224.548 47.023 225.062 46.7105C225.565 46.3877 225.969 45.9325 226.227 45.3923C226.516 44.791 226.662 44.1251 226.648 43.4558C226.665 43.1228 226.618 42.7899 226.502 42.4773C226.387 42.1648 226.21 41.8794 225.982 41.6348C225.731 41.4004 225.432 41.2203 225.106 41.1048C224.78 40.9893 224.436 40.9383 224.093 40.9587C223.488 40.9485 222.897 41.1116 222.381 41.4275C221.867 41.7435 221.453 42.1987 221.188 42.7423C220.899 43.3437 220.753 44.0096 220.766 44.6788C220.749 45.0118 220.8 45.3447 220.919 45.6573C221.035 45.9698 221.215 46.2552 221.443 46.4964C221.701 46.7309 222.003 46.9109 222.33 47.0264C222.663 47.1487 223.013 47.1963 223.359 47.1759ZM223.148 49.8802C222.112 49.9006 221.082 49.6866 220.141 49.2517C219.326 48.8644 218.632 48.2529 218.147 47.4919C217.678 46.6799 217.44 45.7592 217.46 44.8215C217.44 43.6596 217.735 42.5147 218.32 41.5091C218.904 40.5034 219.75 39.6779 220.77 39.1207C221.84 38.533 223.047 38.234 224.266 38.2578C225.299 38.234 226.326 38.448 227.264 38.8863C228.082 39.2736 228.772 39.8953 229.245 40.6699C229.727 41.4683 229.975 42.3856 229.955 43.3165C229.972 44.4954 229.666 45.6573 229.068 46.6731C228.49 47.6617 227.644 48.4703 226.632 49.0037C225.568 49.5915 224.368 49.8938 223.148 49.8802Z" fill="#E91E63"/>
<path d="M98.5886 11.3265L94.8134 30.199H88.5541L89.492 25.3985C88.4828 25.6737 87.4395 25.8198 86.3895 25.8266C84.3983 25.9659 82.4172 25.4257 80.7725 24.2978C80.1303 23.761 79.6206 23.0815 79.2876 22.3103C78.9546 21.5391 78.805 20.7067 78.8492 19.871C78.8866 19.1983 78.9783 18.529 79.1313 17.8699L80.5075 11.3231H86.7667L85.4687 17.6593C85.3871 18.0703 85.3429 18.4882 85.3327 18.9061C85.309 19.1711 85.3429 19.4361 85.4279 19.6841C85.5128 19.9321 85.6556 20.1631 85.8357 20.3534C86.3216 20.6829 86.9027 20.8358 87.4871 20.7916C88.5711 20.8188 89.6449 20.6014 90.6337 20.1631L92.4279 11.3231H98.5886V11.3265Z" fill="#111237"/>
<path d="M30.046 20.3398C32.3397 20.3976 34.6368 20.4044 36.9271 20.5233C44.6748 20.9208 52.334 21.9604 59.8981 23.6965C60.1224 23.7474 60.3637 23.7882 60.4486 24.0532C60.5438 24.3454 60.3331 24.5084 60.153 24.6715C57.7234 26.8662 55.3141 29.0813 52.8233 31.2047C49.5272 34.0211 46.1393 36.7187 42.6529 39.2973C36.8796 43.5712 30.8718 47.4816 24.6363 51.0489C21.1669 53.0329 17.6397 54.9015 14.0445 56.6512C11.9445 57.6738 9.8207 58.6488 7.68671 59.6035C6.96631 59.9262 6.31049 59.8719 5.71243 59.3589C5.10417 58.8391 4.99543 58.1596 5.2163 57.4292C5.70902 55.8052 6.22214 54.1847 6.72505 52.5641C8.17603 47.9063 9.62701 43.2518 11.0848 38.5974C11.1697 38.329 11.1188 38.1354 10.9353 37.9315C9.05953 35.8387 7.18379 33.7459 5.31485 31.6464C3.70756 29.8423 2.09008 28.0451 0.513369 26.2139C-0.492462 25.0452 0.0444348 23.5911 1.55998 23.2854C3.50368 22.8913 5.45417 22.5379 7.41146 22.2152C10.7756 21.6614 14.1566 21.2435 17.5513 20.9344C19.2945 20.7747 21.0411 20.6592 22.7912 20.5709C24.745 20.4723 26.6989 20.4146 28.6528 20.401C29.1218 20.3942 29.5839 20.3296 30.046 20.3398Z" fill="url(#paint0_linear)"/>
<path d="M32.18 53.4543C33.3082 54.1439 34.5587 54.8846 35.4558 55.3466C38.3679 56.8551 41.3311 58.2378 44.2568 59.7225C45.7214 60.4665 47.0228 59.6545 47.0262 58.0068C47.0296 56.4576 47.1044 53.563 47.0874 52.8224C47.0874 49.0546 47.1248 45.2937 47.1282 41.5294L32.18 53.4543Z" fill="url(#paint1_linear)"/>
<path d="M47.1282 40.4185C47.1282 40.3165 47.1418 40.201 47.1316 40.1161C46.3636 40.7106 45.5481 41.2474 44.8141 41.8148C40.1383 45.416 35.1941 48.613 30.0223 51.4498C29.8422 51.5483 29.6553 51.64 29.4718 51.7352C29.4718 51.7488 30.7223 52.5573 32.1834 53.4509L47.1282 41.526C47.1282 41.1557 47.1282 40.7888 47.1282 40.4185Z" fill="url(#paint2_linear)"/>
<path opacity="0.5" d="M47.1282 40.4185C47.1282 40.3165 47.1418 40.201 47.1316 40.1161C46.3636 40.7106 45.5481 41.2474 44.8141 41.8148C40.1383 45.416 35.1941 48.613 30.0223 51.4498C29.8422 51.5483 29.6553 51.64 29.4718 51.7352C29.4718 51.7488 30.7223 52.5573 32.1834 53.4509L47.1282 41.526C47.1282 41.1557 47.1282 40.7888 47.1282 40.4185Z" fill="#AC1E54"/>
<path d="M42.8534 17.8903C33.0805 17.1565 27.3752 17.2278 17.6736 17.8733L30.6509 0.702914C31.4325 -0.329893 33.0228 -0.200795 33.6446 0.933934C37.3519 7.68115 40.4781 12.4205 42.8534 17.8903Z" fill="#E3F2FD"/>
<path d="M30.6509 0.702977L17.6736 17.8734C19.529 17.7511 21.2348 17.6458 22.8557 17.5676L32.8936 0.20356C32.1562 -0.173551 31.2014 -0.024065 30.6509 0.702977Z" fill="#CFDFEC"/>
<path opacity="0.5" d="M11.0916 38.5975C9.63381 43.2519 8.18283 47.9097 6.73185 52.5641C6.22554 54.1847 5.71243 55.8053 5.22311 57.4292C5.00223 58.1597 5.11097 58.8391 5.71922 59.3589C6.31729 59.8685 6.97311 59.9263 7.69351 59.6035C9.8275 58.6489 11.9513 57.6738 14.0513 56.6512C17.6431 54.9016 21.1737 53.033 24.6431 51.0489C30.8786 47.485 36.8864 43.5712 42.6597 39.2973C46.1427 36.7187 49.534 34.0178 52.8301 31.2047C55.3209 29.078 57.7302 26.8629 60.1598 24.6716C60.3059 24.5391 60.4724 24.4032 60.4758 24.1959C45.9762 37.2759 37.4742 40.6189 20.2188 49.5235L10.1979 53.9775L11.129 38.38C11.129 38.4514 11.1188 38.5091 11.0916 38.5975Z" fill="#0072BB"/>
<defs>
<linearGradient id="paint0_linear" x1="-1.25226e-05" y1="40.0717" x2="60.4723" y2="40.0717" gradientUnits="userSpaceOnUse">
<stop stop-color="#44B5FD"/>
<stop offset="1" stop-color="#078FEA"/>
</linearGradient>
<linearGradient id="paint1_linear" x1="38.1807" y1="45.4161" x2="47.569" y2="58.6477" gradientUnits="userSpaceOnUse">
<stop stop-color="#FC5C9A"/>
<stop offset="1" stop-color="#E32D73"/>
</linearGradient>
<linearGradient id="paint2_linear" x1="38.0205" y1="45.5297" x2="47.4089" y2="58.7613" gradientUnits="userSpaceOnUse">
<stop stop-color="#FC5C9A"/>
<stop offset="1" stop-color="#E32D73"/>
</linearGradient>
</defs>
</svg>
